<mxfile host="app.diagrams.net" agent="Mozilla/5.0 (Windows NT 10.0; Win64; x64) AppleWebKit/537.36 (KHTML, like Gecko) Chrome/134.0.0.0 Safari/537.36" version="26.1.1">
  <diagram name="Page-1" id="iKrUhI37tBScLdSOIz5L">
    <mxGraphModel dx="682" dy="741" grid="1" gridSize="10" guides="1" tooltips="1" connect="1" arrows="1" fold="1" page="1" pageScale="1" pageWidth="850" pageHeight="1100" math="0" shadow="0">
      <root>
        <mxCell id="0" />
        <mxCell id="1" parent="0" />
        <mxCell id="pR_tsYRCl2kPoqceH1yw-1" value="Manager" style="shape=umlActor;verticalLabelPosition=bottom;verticalAlign=top;html=1;outlineConnect=0;" vertex="1" parent="1">
          <mxGeometry x="20" y="325" width="90" height="260" as="geometry" />
        </mxCell>
        <mxCell id="pR_tsYRCl2kPoqceH1yw-3" value="" style="rounded=1;whiteSpace=wrap;html=1;" vertex="1" parent="1">
          <mxGeometry x="160" y="102.5" width="290" height="705" as="geometry" />
        </mxCell>
        <mxCell id="pR_tsYRCl2kPoqceH1yw-4" value="Task Management" style="text;html=1;align=center;verticalAlign=middle;whiteSpace=wrap;rounded=0;" vertex="1" parent="1">
          <mxGeometry x="230" y="110" width="150" height="30" as="geometry" />
        </mxCell>
        <mxCell id="pR_tsYRCl2kPoqceH1yw-6" value="add Employees" style="ellipse;whiteSpace=wrap;html=1;" vertex="1" parent="1">
          <mxGeometry x="250" y="150" width="110" height="50" as="geometry" />
        </mxCell>
        <mxCell id="pR_tsYRCl2kPoqceH1yw-7" value="modify Tasks status" style="ellipse;whiteSpace=wrap;html=1;" vertex="1" parent="1">
          <mxGeometry x="250" y="500" width="110" height="50" as="geometry" />
        </mxCell>
        <mxCell id="pR_tsYRCl2kPoqceH1yw-8" value="view Employees" style="ellipse;whiteSpace=wrap;html=1;" vertex="1" parent="1">
          <mxGeometry x="250" y="290" width="110" height="50" as="geometry" />
        </mxCell>
        <mxCell id="pR_tsYRCl2kPoqceH1yw-9" value="view Tasks" style="ellipse;whiteSpace=wrap;html=1;" vertex="1" parent="1">
          <mxGeometry x="250" y="360" width="110" height="50" as="geometry" />
        </mxCell>
        <mxCell id="pR_tsYRCl2kPoqceH1yw-10" value="assign Tasks to Employees" style="ellipse;whiteSpace=wrap;html=1;" vertex="1" parent="1">
          <mxGeometry x="250" y="430" width="110" height="50" as="geometry" />
        </mxCell>
        <mxCell id="pR_tsYRCl2kPoqceH1yw-11" value="add Tasks" style="ellipse;whiteSpace=wrap;html=1;" vertex="1" parent="1">
          <mxGeometry x="250" y="220" width="110" height="50" as="geometry" />
        </mxCell>
        <mxCell id="pR_tsYRCl2kPoqceH1yw-12" value="calculate Work duration of employees" style="ellipse;whiteSpace=wrap;html=1;" vertex="1" parent="1">
          <mxGeometry x="250" y="570" width="110" height="50" as="geometry" />
        </mxCell>
        <mxCell id="pR_tsYRCl2kPoqceH1yw-13" value="filter employees ascending by work duration" style="ellipse;whiteSpace=wrap;html=1;" vertex="1" parent="1">
          <mxGeometry x="250" y="640" width="110" height="50" as="geometry" />
        </mxCell>
        <mxCell id="pR_tsYRCl2kPoqceH1yw-14" value="view stats of each employee" style="ellipse;whiteSpace=wrap;html=1;" vertex="1" parent="1">
          <mxGeometry x="250" y="710" width="110" height="50" as="geometry" />
        </mxCell>
        <mxCell id="pR_tsYRCl2kPoqceH1yw-16" value="" style="endArrow=none;dashed=1;html=1;dashPattern=1 3;strokeWidth=2;rounded=0;fontSize=12;startSize=8;endSize=8;curved=1;entryX=0.007;entryY=0.057;entryDx=0;entryDy=0;entryPerimeter=0;" edge="1" parent="1" target="pR_tsYRCl2kPoqceH1yw-3">
          <mxGeometry width="50" height="50" relative="1" as="geometry">
            <mxPoint x="450" y="143" as="sourcePoint" />
            <mxPoint x="150" y="140" as="targetPoint" />
          </mxGeometry>
        </mxCell>
        <mxCell id="pR_tsYRCl2kPoqceH1yw-25" value="" style="endArrow=none;html=1;rounded=0;fontSize=12;startSize=8;endSize=8;curved=1;entryX=0;entryY=0.5;entryDx=0;entryDy=0;exitX=0.539;exitY=0.475;exitDx=0;exitDy=0;exitPerimeter=0;" edge="1" parent="1" source="pR_tsYRCl2kPoqceH1yw-1" target="pR_tsYRCl2kPoqceH1yw-6">
          <mxGeometry width="50" height="50" relative="1" as="geometry">
            <mxPoint x="60" y="280" as="sourcePoint" />
            <mxPoint x="110" y="230" as="targetPoint" />
          </mxGeometry>
        </mxCell>
        <mxCell id="pR_tsYRCl2kPoqceH1yw-26" value="" style="endArrow=none;html=1;rounded=0;fontSize=12;startSize=8;endSize=8;curved=1;entryX=0.032;entryY=0.64;entryDx=0;entryDy=0;exitX=0.5;exitY=0.5;exitDx=0;exitDy=0;exitPerimeter=0;entryPerimeter=0;" edge="1" parent="1" source="pR_tsYRCl2kPoqceH1yw-1" target="pR_tsYRCl2kPoqceH1yw-11">
          <mxGeometry width="50" height="50" relative="1" as="geometry">
            <mxPoint x="89" y="459" as="sourcePoint" />
            <mxPoint x="260" y="185" as="targetPoint" />
          </mxGeometry>
        </mxCell>
        <mxCell id="pR_tsYRCl2kPoqceH1yw-27" value="" style="endArrow=none;html=1;rounded=0;fontSize=12;startSize=8;endSize=8;curved=1;entryX=0;entryY=0.5;entryDx=0;entryDy=0;exitX=0.5;exitY=0.5;exitDx=0;exitDy=0;exitPerimeter=0;" edge="1" parent="1" source="pR_tsYRCl2kPoqceH1yw-1" target="pR_tsYRCl2kPoqceH1yw-8">
          <mxGeometry width="50" height="50" relative="1" as="geometry">
            <mxPoint x="99" y="469" as="sourcePoint" />
            <mxPoint x="270" y="195" as="targetPoint" />
          </mxGeometry>
        </mxCell>
        <mxCell id="pR_tsYRCl2kPoqceH1yw-28" value="" style="endArrow=none;html=1;rounded=0;fontSize=12;startSize=8;endSize=8;curved=1;entryX=0;entryY=0.5;entryDx=0;entryDy=0;exitX=0.5;exitY=0.5;exitDx=0;exitDy=0;exitPerimeter=0;" edge="1" parent="1" source="pR_tsYRCl2kPoqceH1yw-1" target="pR_tsYRCl2kPoqceH1yw-9">
          <mxGeometry width="50" height="50" relative="1" as="geometry">
            <mxPoint x="109" y="479" as="sourcePoint" />
            <mxPoint x="280" y="205" as="targetPoint" />
          </mxGeometry>
        </mxCell>
        <mxCell id="pR_tsYRCl2kPoqceH1yw-29" value="" style="endArrow=none;html=1;rounded=0;fontSize=12;startSize=8;endSize=8;curved=1;entryX=0;entryY=0.5;entryDx=0;entryDy=0;exitX=0.5;exitY=0.5;exitDx=0;exitDy=0;exitPerimeter=0;" edge="1" parent="1" source="pR_tsYRCl2kPoqceH1yw-1" target="pR_tsYRCl2kPoqceH1yw-10">
          <mxGeometry width="50" height="50" relative="1" as="geometry">
            <mxPoint x="119" y="489" as="sourcePoint" />
            <mxPoint x="290" y="215" as="targetPoint" />
          </mxGeometry>
        </mxCell>
        <mxCell id="pR_tsYRCl2kPoqceH1yw-30" value="" style="endArrow=none;html=1;rounded=0;fontSize=12;startSize=8;endSize=8;curved=1;entryX=0;entryY=0.5;entryDx=0;entryDy=0;exitX=0.5;exitY=0.5;exitDx=0;exitDy=0;exitPerimeter=0;" edge="1" parent="1" source="pR_tsYRCl2kPoqceH1yw-1" target="pR_tsYRCl2kPoqceH1yw-7">
          <mxGeometry width="50" height="50" relative="1" as="geometry">
            <mxPoint x="129" y="499" as="sourcePoint" />
            <mxPoint x="300" y="225" as="targetPoint" />
          </mxGeometry>
        </mxCell>
        <mxCell id="pR_tsYRCl2kPoqceH1yw-31" value="" style="endArrow=none;html=1;rounded=0;fontSize=12;startSize=8;endSize=8;curved=1;entryX=0;entryY=0.5;entryDx=0;entryDy=0;exitX=0.5;exitY=0.5;exitDx=0;exitDy=0;exitPerimeter=0;" edge="1" parent="1" source="pR_tsYRCl2kPoqceH1yw-1" target="pR_tsYRCl2kPoqceH1yw-12">
          <mxGeometry width="50" height="50" relative="1" as="geometry">
            <mxPoint x="80" y="460" as="sourcePoint" />
            <mxPoint x="310" y="235" as="targetPoint" />
          </mxGeometry>
        </mxCell>
        <mxCell id="pR_tsYRCl2kPoqceH1yw-32" value="" style="endArrow=none;html=1;rounded=0;fontSize=12;startSize=8;endSize=8;curved=1;entryX=0;entryY=0.5;entryDx=0;entryDy=0;exitX=0.5;exitY=0.5;exitDx=0;exitDy=0;exitPerimeter=0;" edge="1" parent="1" source="pR_tsYRCl2kPoqceH1yw-1" target="pR_tsYRCl2kPoqceH1yw-13">
          <mxGeometry width="50" height="50" relative="1" as="geometry">
            <mxPoint x="149" y="519" as="sourcePoint" />
            <mxPoint x="320" y="245" as="targetPoint" />
          </mxGeometry>
        </mxCell>
        <mxCell id="pR_tsYRCl2kPoqceH1yw-33" value="" style="endArrow=none;html=1;rounded=0;fontSize=12;startSize=8;endSize=8;curved=1;entryX=0;entryY=0.5;entryDx=0;entryDy=0;exitX=0.5;exitY=0.5;exitDx=0;exitDy=0;exitPerimeter=0;" edge="1" parent="1" source="pR_tsYRCl2kPoqceH1yw-1" target="pR_tsYRCl2kPoqceH1yw-14">
          <mxGeometry width="50" height="50" relative="1" as="geometry">
            <mxPoint x="159" y="529" as="sourcePoint" />
            <mxPoint x="330" y="255" as="targetPoint" />
          </mxGeometry>
        </mxCell>
      </root>
    </mxGraphModel>
  </diagram>
</mxfile>
